<?xml version="1.0" standalone="no"?>
<!DOCTYPE svg PUBLIC "-//W3C//DTD SVG 20010904//EN"
 "http://www.w3.org/TR/2001/REC-SVG-20010904/DTD/svg10.dtd">
<svg version="1.0" xmlns="http://www.w3.org/2000/svg"
 width="64.000000pt" height="64.000000pt" viewBox="0 0 64.000000 64.000000"
 preserveAspectRatio="xMidYMid meet">
<metadata>
Created by potrace 1.15, written by Peter Selinger 2001-2017
</metadata>
<g transform="translate(0.000000,64.000000) scale(0.100000,-0.100000)"
fill="#000000" stroke="none">
<path d="M149 611 c-24 -15 -60 -46 -79 -67 -19 -21 -27 -32 -17 -25 9 7 17 9
17 3 0 -13 -25 -33 -32 -26 -3 3 -9 0 -14 -7 -5 -8 -3 -10 6 -4 10 6 11 4 5
-11 -44 -106 -48 -201 -10 -282 28 -61 30 -66 13 -56 -6 4 3 -11 22 -34 18
-23 38 -42 44 -42 5 0 -6 17 -25 38 l-34 37 43 -40 c42 -39 53 -53 30 -39 -7
4 -8 3 -4 -5 4 -6 22 -18 39 -27 l32 -15 -25 21 -25 21 38 -18 c20 -9 32 -20
27 -23 -6 -4 48 -7 120 -7 72 0 126 3 120 7 -5 3 7 14 27 23 l38 18 -25 -21
-25 -21 32 15 c17 9 35 21 39 27 5 8 3 9 -7 4 -8 -5 9 17 37 48 62 68 84 125
84 222 0 60 -5 82 -30 133 -94 188 -320 238 -491 110 -40 -30 -47 -33 -29 -13
14 15 48 40 75 56 28 16 45 29 39 29 -5 0 -30 -13 -55 -29z m295 -117 c3 -9 6
-29 6 -45 0 -26 -4 -29 -30 -29 -20 0 -30 5 -30 15 0 12 -14 15 -70 15 -38 0
-70 -1 -70 -3 0 -2 18 -28 40 -57 22 -29 40 -60 40 -68 0 -8 -13 -31 -28 -51
-50 -63 -51 -61 37 -61 74 0 81 2 81 20 0 16 7 20 30 20 29 0 30 -1 30 -50 0
-38 -4 -52 -19 -60 -11 -5 -78 -10 -150 -10 -105 0 -133 3 -145 16 -18 18 -19
16 46 107 l50 69 -27 36 c-14 21 -39 55 -56 78 -50 68 -40 74 121 74 116 0
139 -2 144 -16z"/>
</g>
</svg>
